<svg width="35" height="35" viewBox="0 0 35 35" fill="none" xmlns="http://www.w3.org/2000/svg">
<path d="M17.0873 23.495L16.5839 23.9985L17.0873 24.5019L17.5908 23.9985L17.0873 23.495ZM12.3121 19.7266L16.5839 23.9985L17.5908 22.9916L13.319 18.7198L12.3121 19.7266ZM17.5908 23.9985L21.8626 19.7266L20.8557 18.7198L16.5839 22.9916L17.5908 23.9985Z" fill="white"/>
<path d="M17.0873 14.9514L16.5839 15.4548L17.0873 15.9583L17.5908 15.4548L17.0873 14.9514ZM12.3121 11.183L16.5839 15.4548L17.5908 14.448L13.319 10.1761L12.3121 11.183ZM17.5908 15.4548L21.8626 11.183L20.8557 10.1761L16.5839 14.448L17.5908 15.4548Z" fill="white"/>
</svg>
