<svg width="200" height="200" viewBox="0 0 200 200" fill="none" xmlns="http://www.w3.org/2000/svg">
<rect width="200" height="200" fill="#2A2445"/>
<path d="M37.8926 145.22C36.6621 145.22 35.5781 145.098 34.6406 144.854C33.7129 144.6 33 144.292 32.502 143.931C32.0137 143.569 31.7695 143.228 31.7695 142.905C31.7695 142.651 31.8623 142.339 32.0479 141.968C32.2432 141.597 32.4727 141.279 32.7363 141.016C33 140.742 33.2197 140.605 33.3955 140.605C33.5029 140.605 33.7324 140.698 34.084 140.884C34.6113 141.157 35.1094 141.377 35.5781 141.543C36.0566 141.709 36.6035 141.792 37.2188 141.792C37.9023 141.792 38.4785 141.66 38.9473 141.396C39.4258 141.123 39.665 140.649 39.665 139.976C39.665 139.585 39.543 139.248 39.2988 138.965C39.0547 138.682 38.7422 138.442 38.3613 138.247C37.9805 138.052 37.4629 137.822 36.8086 137.559L35.6514 137.061C34.9482 136.719 34.3428 136.343 33.835 135.933C33.3369 135.522 32.9268 134.98 32.6045 134.307C32.292 133.633 32.1357 132.808 32.1357 131.831C32.1357 130.64 32.4287 129.648 33.0146 128.857C33.6006 128.066 34.3623 127.485 35.2998 127.114C36.2373 126.743 37.2432 126.558 38.3174 126.558C39.1963 126.558 39.9922 126.65 40.7051 126.836C41.418 127.012 41.9746 127.241 42.375 127.524C42.7852 127.808 42.9902 128.091 42.9902 128.374C42.9902 128.608 42.9121 128.911 42.7559 129.282C42.6094 129.644 42.4238 129.961 42.1992 130.234C41.9746 130.508 41.7646 130.645 41.5693 130.645C41.4814 130.645 41.3252 130.596 41.1006 130.498C40.7393 130.352 40.373 130.234 40.002 130.146C39.6406 130.049 39.1963 130 38.6689 130C37.7607 130 37.1309 130.146 36.7793 130.439C36.4277 130.723 36.252 131.06 36.252 131.45C36.252 131.899 36.3691 132.275 36.6035 132.578C36.8477 132.881 37.1504 133.13 37.5117 133.325C37.8828 133.521 38.3955 133.745 39.0498 133.999C40.0361 134.419 40.8418 134.819 41.4668 135.2C42.0918 135.571 42.6289 136.108 43.0781 136.812C43.5371 137.515 43.7666 138.413 43.7666 139.507C43.7666 140.845 43.4834 141.943 42.917 142.803C42.3604 143.652 41.6377 144.268 40.749 144.648C39.8701 145.029 38.918 145.22 37.8926 145.22ZM51.8818 145.22C49.665 145.22 48.0195 144.648 46.9453 143.506C45.8711 142.354 45.334 140.61 45.334 138.276C45.334 135.923 45.876 134.15 46.96 132.959C48.0439 131.768 49.7334 131.172 52.0283 131.172C52.6826 131.172 53.3418 131.245 54.0059 131.392C54.6797 131.528 55.2363 131.733 55.6758 132.007C56.125 132.271 56.3496 132.593 56.3496 132.974C56.3496 133.13 56.2617 133.374 56.0859 133.706C55.9199 134.038 55.7246 134.336 55.5 134.6C55.2852 134.854 55.1045 134.98 54.958 134.98C54.8896 134.98 54.7383 134.912 54.5039 134.775C54.1328 134.6 53.7812 134.463 53.4492 134.365C53.1172 134.258 52.7119 134.204 52.2334 134.204C51.208 134.204 50.4609 134.531 49.9922 135.186C49.5234 135.83 49.2891 136.826 49.2891 138.174C49.2891 139.531 49.5088 140.537 49.9482 141.191C50.3975 141.836 51.1104 142.158 52.0869 142.158C52.624 142.158 53.0928 142.104 53.4932 141.997C53.8936 141.88 54.2744 141.733 54.6357 141.558C54.7041 141.528 54.7871 141.494 54.8848 141.455C54.9824 141.416 55.0557 141.396 55.1045 141.396C55.2803 141.396 55.4707 141.523 55.6758 141.777C55.8906 142.021 56.0713 142.305 56.2178 142.627C56.374 142.949 56.4521 143.198 56.4521 143.374C56.4521 143.823 56.1592 144.185 55.5732 144.458C54.9873 144.731 54.333 144.927 53.6104 145.044C52.8877 145.161 52.3115 145.22 51.8818 145.22ZM60.041 145.044C59.0059 145.044 58.4883 144.771 58.4883 144.224V135.962C58.4883 134.712 58.4053 133.672 58.2393 132.842C58.1904 132.578 58.166 132.393 58.166 132.285C58.166 132.09 58.3467 131.934 58.708 131.816C59.0791 131.689 59.4941 131.597 59.9531 131.538C60.4219 131.479 60.7979 131.45 61.0811 131.45C61.3838 131.45 61.5938 131.562 61.7109 131.787C61.8379 132.012 61.9502 132.339 62.0479 132.769L62.1357 133.149C62.4678 132.544 62.8486 132.065 63.2783 131.714C63.7178 131.353 64.2793 131.172 64.9629 131.172C65.5293 131.172 65.9199 131.318 66.1348 131.611C66.3496 131.895 66.457 132.217 66.457 132.578C66.457 132.773 66.4229 133.052 66.3545 133.413C66.2861 133.765 66.1885 134.077 66.0615 134.351C65.9346 134.624 65.793 134.761 65.6367 134.761C65.5293 134.761 65.3682 134.731 65.1533 134.673C64.8604 134.595 64.6113 134.556 64.4062 134.556C63.9277 134.556 63.5078 134.692 63.1465 134.966C62.7949 135.229 62.5264 135.527 62.3408 135.859V144.224C62.3408 144.771 61.8135 145.044 60.7588 145.044H60.041ZM71.7598 145.22C70.4512 145.22 69.4844 144.878 68.8594 144.194C68.2344 143.501 67.9219 142.432 67.9219 140.986V132.153C67.9219 131.88 68.0488 131.675 68.3027 131.538C68.5566 131.401 68.9521 131.333 69.4893 131.333H70.207C70.7441 131.333 71.1396 131.401 71.3936 131.538C71.6475 131.675 71.7744 131.88 71.7744 132.153V140.4C71.7744 140.938 71.8965 141.343 72.1406 141.616C72.3848 141.89 72.7852 142.026 73.3418 142.026C73.8203 142.026 74.2354 141.875 74.5869 141.572C74.9482 141.26 75.2266 140.908 75.4219 140.518V132.153C75.4219 131.88 75.5488 131.675 75.8027 131.538C76.0566 131.401 76.4521 131.333 76.9893 131.333H77.707C78.2441 131.333 78.6396 131.401 78.8936 131.538C79.1475 131.675 79.2744 131.88 79.2744 132.153V140.4C79.2744 141.221 79.2939 141.865 79.333 142.334C79.3818 142.793 79.4404 143.223 79.5088 143.623C79.5576 143.887 79.582 144.072 79.582 144.18C79.582 144.375 79.4014 144.536 79.04 144.663C78.6787 144.79 78.2637 144.883 77.7949 144.941C77.3359 145 76.9648 145.029 76.6816 145.029C76.3691 145.029 76.1445 144.907 76.0078 144.663C75.8809 144.409 75.7783 144.053 75.7002 143.594L75.627 143.228C75.2168 143.784 74.665 144.258 73.9717 144.648C73.2881 145.029 72.5508 145.22 71.7598 145.22ZM97.4531 131.172C98.752 131.172 99.709 131.514 100.324 132.197C100.949 132.881 101.262 133.94 101.262 135.376V144.224C101.262 144.771 100.734 145.044 99.6797 145.044H98.9619C97.9268 145.044 97.4092 144.771 97.4092 144.224V135.962C97.4092 135.435 97.2871 135.034 97.043 134.761C96.8086 134.487 96.4131 134.351 95.8564 134.351C95.3682 134.351 94.9531 134.502 94.6113 134.805C94.2793 135.098 94.0107 135.439 93.8057 135.83V144.224C93.8057 144.771 93.2832 145.044 92.2383 145.044H91.5059C90.4707 145.044 89.9531 144.771 89.9531 144.224V135.962C89.9531 135.435 89.8311 135.034 89.5869 134.761C89.3525 134.487 88.9619 134.351 88.415 134.351C87.9463 134.351 87.5312 134.507 87.1699 134.819C86.8184 135.132 86.5498 135.479 86.3643 135.859V144.224C86.3643 144.771 85.8369 145.044 84.7822 145.044H84.0645C83.0293 145.044 82.5117 144.771 82.5117 144.224V135.962C82.5117 134.712 82.4287 133.672 82.2627 132.842C82.2139 132.578 82.1895 132.393 82.1895 132.285C82.1895 132.09 82.3701 131.934 82.7314 131.816C83.1025 131.689 83.5176 131.597 83.9766 131.538C84.4453 131.479 84.8213 131.45 85.1045 131.45C85.4072 131.45 85.6172 131.562 85.7344 131.787C85.8613 132.012 85.9736 132.339 86.0713 132.769L86.1592 133.149C86.5693 132.593 87.1162 132.124 87.7998 131.743C88.4834 131.362 89.2207 131.172 90.0117 131.172C90.9102 131.172 91.6377 131.333 92.1943 131.655C92.7607 131.978 93.1758 132.476 93.4395 133.149C93.8789 132.593 94.4551 132.124 95.168 131.743C95.8809 131.362 96.6426 131.172 97.4531 131.172ZM106.345 145.044C105.3 145.044 104.777 144.771 104.777 144.224V127.803C104.777 127.441 104.86 127.183 105.026 127.026C105.192 126.86 105.456 126.777 105.817 126.777H111.296C112.917 126.777 114.353 127.173 115.603 127.964C116.853 128.755 117.478 130.259 117.478 132.476C117.478 133.999 117.116 135.186 116.394 136.035C115.671 136.875 114.855 137.441 113.947 137.734C113.049 138.027 112.248 138.174 111.545 138.174H108.791V144.224C108.791 144.771 108.269 145.044 107.224 145.044H106.345ZM111.105 134.731C111.73 134.731 112.263 134.565 112.702 134.233C113.151 133.901 113.376 133.315 113.376 132.476C113.376 131.626 113.151 131.03 112.702 130.688C112.253 130.347 111.721 130.176 111.105 130.176H108.791V134.731H111.105ZM125.256 145.22C123.195 145.22 121.623 144.614 120.539 143.403C119.465 142.192 118.928 140.449 118.928 138.174C118.928 135.908 119.465 134.175 120.539 132.974C121.623 131.772 123.195 131.172 125.256 131.172C127.316 131.172 128.879 131.772 129.943 132.974C131.018 134.165 131.555 135.898 131.555 138.174C131.555 140.449 131.018 142.192 129.943 143.403C128.879 144.614 127.316 145.22 125.256 145.22ZM125.256 142.158C126.076 142.158 126.677 141.826 127.058 141.162C127.448 140.498 127.644 139.502 127.644 138.174C127.644 136.855 127.448 135.864 127.058 135.2C126.677 134.536 126.076 134.204 125.256 134.204C123.635 134.204 122.824 135.527 122.824 138.174C122.824 139.492 123.02 140.488 123.41 141.162C123.811 141.826 124.426 142.158 125.256 142.158ZM135.949 145.044C134.904 145.044 134.382 144.771 134.382 144.224V126.206C134.382 125.923 134.509 125.713 134.763 125.576C135.017 125.43 135.412 125.356 135.949 125.356H136.667C137.712 125.356 138.234 125.64 138.234 126.206V136.504L138.322 136.533L141.486 131.831C141.623 131.626 141.813 131.494 142.058 131.436C142.302 131.367 142.639 131.333 143.068 131.333H144.035C145.012 131.333 145.5 131.465 145.5 131.729C145.5 131.865 145.417 132.031 145.251 132.227L141.647 137.397L145.881 144.106C146.027 144.351 146.101 144.531 146.101 144.648C146.101 144.912 145.603 145.044 144.606 145.044H143.522C143.103 145.044 142.761 145.01 142.497 144.941C142.233 144.873 142.053 144.741 141.955 144.546L138.322 138.555L138.234 138.599V144.224C138.234 144.771 137.712 145.044 136.667 145.044H135.949ZM154.113 145.22C151.828 145.22 150.124 144.609 149.001 143.389C147.878 142.158 147.316 140.454 147.316 138.276C147.316 135.825 147.878 134.028 149.001 132.886C150.124 131.743 151.672 131.172 153.645 131.172C154.953 131.172 156.022 131.47 156.853 132.065C157.692 132.661 158.303 133.462 158.684 134.468C159.074 135.474 159.27 136.611 159.27 137.881C159.27 138.027 159.182 138.223 159.006 138.467C158.84 138.711 158.649 138.931 158.435 139.126C158.22 139.321 158.054 139.419 157.937 139.419H151.301C151.389 140.415 151.682 141.123 152.18 141.543C152.688 141.953 153.391 142.158 154.289 142.158C154.777 142.158 155.217 142.104 155.607 141.997C156.008 141.88 156.433 141.729 156.882 141.543C157.155 141.416 157.341 141.353 157.438 141.353C157.614 141.353 157.805 141.479 158.01 141.733C158.225 141.978 158.405 142.261 158.552 142.583C158.708 142.905 158.786 143.154 158.786 143.33C158.786 143.73 158.513 144.072 157.966 144.355C157.429 144.639 156.789 144.854 156.047 145C155.314 145.146 154.67 145.22 154.113 145.22ZM155.52 136.855C155.52 136.055 155.363 135.415 155.051 134.937C154.738 134.448 154.27 134.204 153.645 134.204C152.355 134.204 151.574 135.088 151.301 136.855H155.52ZM163.459 145.044C162.424 145.044 161.906 144.771 161.906 144.224V135.962C161.906 134.712 161.823 133.672 161.657 132.842C161.608 132.578 161.584 132.393 161.584 132.285C161.584 132.09 161.765 131.934 162.126 131.816C162.497 131.689 162.912 131.597 163.371 131.538C163.84 131.479 164.216 131.45 164.499 131.45C164.802 131.45 165.012 131.562 165.129 131.787C165.256 132.012 165.368 132.339 165.466 132.769L165.554 133.149C165.886 132.544 166.267 132.065 166.696 131.714C167.136 131.353 167.697 131.172 168.381 131.172C168.947 131.172 169.338 131.318 169.553 131.611C169.768 131.895 169.875 132.217 169.875 132.578C169.875 132.773 169.841 133.052 169.772 133.413C169.704 133.765 169.606 134.077 169.479 134.351C169.353 134.624 169.211 134.761 169.055 134.761C168.947 134.761 168.786 134.731 168.571 134.673C168.278 134.595 168.029 134.556 167.824 134.556C167.346 134.556 166.926 134.692 166.564 134.966C166.213 135.229 165.944 135.527 165.759 135.859V144.224C165.759 144.771 165.231 145.044 164.177 145.044H163.459Z" fill="#8B499C"/>
<path d="M91.5967 53.7903C101.431 53.7903 109.403 52.7938 109.403 51.5645C109.403 50.3352 101.431 49.3387 91.5967 49.3387C81.7625 49.3387 73.7903 50.3352 73.7903 51.5645C73.7903 52.7938 81.7625 53.7903 91.5967 53.7903Z" fill="#FFFDF4"/>
<path d="M73.7903 51.5645C73.7903 52.7887 81.7587 53.7903 91.5968 53.7903C101.435 53.7903 109.403 52.7887 109.403 51.5645C109.403 50.3403 101.435 49.3387 91.5968 49.3387C81.7587 49.3387 73.7903 50.3403 73.7903 51.5645ZM91.5968 46C105.731 46 117.194 48.4929 117.194 51.5645C117.194 53.8682 110.772 55.8381 101.613 56.695C98.5413 56.9732 95.1469 57.129 91.5968 57.129C88.0466 57.129 84.6523 56.9732 81.5806 56.695C72.4214 55.8381 66 53.8682 66 51.5645C66 48.4929 77.4629 46 91.5968 46Z" fill="#8B499C"/>
<path d="M101.613 103.437C110.772 102.58 117.193 100.61 117.193 98.3064V104.984C117.193 107.466 109.715 109.569 99.387 110.292V103.615C100.144 103.559 100.889 103.493 101.613 103.437Z" fill="#9D53B0"/>
<path d="M81.5806 103.437C82.304 103.493 83.0497 103.559 83.8064 103.615V110.292C73.4787 109.569 66 107.466 66 104.984V98.3064C66 100.61 72.4214 102.58 81.5806 103.437Z" fill="#9D53B0"/>
<path d="M99.387 96.9376C100.144 96.8819 100.889 96.8151 101.613 96.7595V103.437C100.889 103.493 100.144 103.559 99.387 103.615C96.9275 103.782 94.3122 103.871 91.5967 103.871C88.8812 103.871 86.2659 103.782 83.8064 103.615C83.0496 103.559 82.304 103.493 81.5806 103.437V96.7595C82.304 96.8151 83.0496 96.8819 83.8064 96.9376C86.2659 97.1045 88.8812 97.1935 91.5967 97.1935C94.3122 97.1935 96.9275 97.1045 99.387 96.9376Z" fill="#9D53B0"/>
<path d="M83.8064 90.2601V96.9376C83.0497 96.8819 82.304 96.8151 81.5806 96.7595C72.4214 95.9026 66 93.9327 66 91.629V84.9516C66 87.2553 72.4214 89.2251 81.5806 90.0821C82.304 90.1377 83.0497 90.2045 83.8064 90.2601Z" fill="#9D53B0"/>
<path d="M101.613 96.7595C100.889 96.8151 100.144 96.8819 99.387 96.9376V90.2601C100.144 90.2045 100.889 90.1377 101.613 90.0821C110.772 89.2251 117.193 87.2553 117.193 84.9516V91.629C117.193 93.9327 110.772 95.9026 101.613 96.7595Z" fill="#9D53B0"/>
<path d="M99.387 83.5827C100.144 83.5271 100.889 83.4603 101.613 83.4047V90.0821C100.889 90.1377 100.144 90.2045 99.387 90.2601C96.9275 90.4271 94.3122 90.5161 91.5967 90.5161C88.8812 90.5161 86.2659 90.4271 83.8064 90.2601C83.0496 90.2045 82.304 90.1377 81.5806 90.0821V83.4047C82.304 83.4603 83.0496 83.5271 83.8064 83.5827C86.2659 83.7497 88.8812 83.8387 91.5967 83.8387C94.3122 83.8387 96.9275 83.7497 99.387 83.5827Z" fill="#9D53B0"/>
<path d="M101.613 83.4047C100.889 83.4603 100.144 83.5271 99.387 83.5827V76.9053C100.144 76.8497 100.889 76.7829 101.613 76.7273C110.772 75.8703 117.193 73.9005 117.193 71.5968V78.2742C117.193 80.5779 110.772 82.5477 101.613 83.4047Z" fill="#773C86"/>
<path d="M83.8064 76.9053V83.5827C83.0497 83.5271 82.304 83.4603 81.5806 83.4047C72.4214 82.5477 66 80.5779 66 78.2742V71.5968C66 73.9005 72.4214 75.8703 81.5806 76.7273C82.304 76.7829 83.0497 76.8497 83.8064 76.9053Z" fill="#773C86"/>
<path d="M99.387 70.2279C100.144 70.1723 100.889 70.1055 101.613 70.0498V76.7273C100.889 76.7829 100.144 76.8497 99.387 76.9053C96.9275 77.0723 94.3122 77.1613 91.5967 77.1613C88.8812 77.1613 86.2659 77.0723 83.8064 76.9053C83.0496 76.8497 82.304 76.7829 81.5806 76.7273V70.0498C82.304 70.1055 83.0496 70.1723 83.8064 70.2279C86.2659 70.3948 88.8812 70.4839 91.5967 70.4839C94.3122 70.4839 96.9275 70.3948 99.387 70.2279Z" fill="#773C86"/>
<path d="M83.8064 63.5505V70.2279C83.0497 70.1722 82.304 70.1055 81.5806 70.0498C72.4214 69.1929 66 67.2231 66 64.9193V58.2419C66 60.5456 72.4214 62.5155 81.5806 63.3724C82.304 63.4281 83.0497 63.4948 83.8064 63.5505Z" fill="#773C86"/>
<path d="M101.613 70.0498C100.889 70.1055 100.144 70.1722 99.387 70.2279V63.5505C100.144 63.4948 100.889 63.4281 101.613 63.3724C110.772 62.5155 117.193 60.5456 117.193 58.2419V64.9193C117.193 67.2231 110.772 69.1929 101.613 70.0498Z" fill="#773C86"/>
<path d="M99.387 63.5505C96.9275 63.7174 94.3122 63.8064 91.5967 63.8064C88.8812 63.8064 86.2659 63.7174 83.8064 63.5505C83.0496 63.4948 82.304 63.4281 81.5806 63.3724V56.695C84.6522 56.9732 88.0465 57.129 91.5967 57.129C95.1468 57.129 98.5412 56.9732 101.613 56.695V63.3724C100.889 63.4281 100.144 63.4948 99.387 63.5505Z" fill="#773C86"/>
<path d="M99.3869 103.615V110.292C96.9274 110.459 94.3121 110.548 91.5966 110.548C88.8811 110.548 86.2658 110.459 83.8063 110.292V103.615C86.2658 103.782 88.8811 103.871 91.5966 103.871C94.3121 103.871 96.9274 103.782 99.3869 103.615Z" fill="#FBF8ED"/>
<path d="M117.194 91.629V98.3064C117.194 100.61 110.772 102.58 101.613 103.437V96.7595C110.772 95.9026 117.194 93.9327 117.194 91.629Z" fill="#FFFDF4"/>
<path d="M81.5806 96.7595V103.437C72.4214 102.58 66 100.61 66 98.3064V91.629C66 93.9327 72.4214 95.9026 81.5806 96.7595Z" fill="#FFFDF4"/>
<path d="M99.3869 90.2601V96.9375C96.9274 97.1045 94.3121 97.1935 91.5966 97.1935C88.8811 97.1935 86.2658 97.1045 83.8063 96.9375V90.2601C86.2658 90.4271 88.8811 90.5161 91.5966 90.5161C94.3121 90.5161 96.9274 90.4271 99.3869 90.2601Z" fill="#FFFDF4"/>
<path d="M117.194 78.2742V84.9516C117.194 87.2553 110.772 89.2251 101.613 90.0821V83.4047C110.772 82.5477 117.194 80.5779 117.194 78.2742Z" fill="#FFFDF4"/>
<path d="M81.5806 83.4047V90.0821C72.4214 89.2251 66 87.2553 66 84.9516V78.2742C66 80.5779 72.4214 82.5477 81.5806 83.4047Z" fill="#FFFDF4"/>
<path d="M99.3869 76.9053V83.5827C96.9274 83.7497 94.3121 83.8387 91.5966 83.8387C88.8811 83.8387 86.2658 83.7497 83.8063 83.5827V76.9053C86.2658 77.0722 88.8811 77.1613 91.5966 77.1613C94.3121 77.1613 96.9274 77.0722 99.3869 76.9053Z" fill="#FFFDF4"/>
<path d="M117.194 64.9193V71.5968C117.194 73.9005 110.772 75.8703 101.613 76.7272V70.0498C110.772 69.1929 117.194 67.2231 117.194 64.9193Z" fill="#FFFDF4"/>
<path d="M81.5806 70.0498V76.7272C72.4214 75.8703 66 73.9005 66 71.5968V64.9193C66 67.2231 72.4214 69.1929 81.5806 70.0498Z" fill="#FFFDF4"/>
<path d="M99.3869 63.5505V70.2279C96.9274 70.3948 94.3121 70.4839 91.5966 70.4839C88.8811 70.4839 86.2658 70.3948 83.8063 70.2279V63.5505C86.2658 63.7174 88.8811 63.8064 91.5966 63.8064C94.3121 63.8064 96.9274 63.7174 99.3869 63.5505Z" fill="#FFFDF4"/>
<path d="M101.613 56.695C110.772 55.8381 117.194 53.8682 117.194 51.5645V58.2419C117.194 60.5456 110.772 62.5155 101.613 63.3724V56.695Z" fill="#FFFDF4"/>
<path d="M81.5806 56.695V63.3724C72.4214 62.5155 66 60.5456 66 58.2419V51.5645C66 53.8682 72.4214 55.8381 81.5806 56.695Z" fill="#FFFDF4"/>
<path d="M109.403 51.5645C109.403 51.7537 109.214 51.9429 108.847 52.121C106.866 51.1639 99.899 50.4516 91.5967 50.4516C83.2945 50.4516 76.3277 51.1639 74.3467 52.121C73.9795 51.9429 73.7903 51.7537 73.7903 51.5645C73.7903 50.3403 81.7587 49.3387 91.5967 49.3387C101.435 49.3387 109.403 50.3403 109.403 51.5645Z" fill="#F8F3DF"/>
<path d="M99.3869 68.0021V70.2279C96.9274 70.3948 94.3121 70.4839 91.5966 70.4839C88.8811 70.4839 86.2658 70.3948 83.8063 70.2279V68.0021C86.2658 68.169 88.8811 68.2581 91.5966 68.2581C94.3121 68.2581 96.9274 68.169 99.3869 68.0021Z" fill="#FBF8ED"/>
<path d="M117.193 62.6935V64.9193C117.193 67.2231 110.772 69.1929 101.613 70.0498C100.889 70.1055 100.144 70.1722 99.387 70.2279V68.0021C100.144 67.9464 100.889 67.8797 101.613 67.824C110.772 66.9671 117.193 64.9973 117.193 62.6935Z" fill="#8B499C"/>
<path d="M99.3869 81.3569V83.5827C96.9274 83.7497 94.3121 83.8387 91.5966 83.8387C88.8811 83.8387 86.2658 83.7497 83.8063 83.5827V81.3569C86.2658 81.5239 88.8811 81.6129 91.5966 81.6129C94.3121 81.6129 96.9274 81.5239 99.3869 81.3569Z" fill="#FBF8ED"/>
<path d="M117.193 76.0484V78.2742C117.193 80.5779 110.772 82.5477 101.613 83.4047C100.889 83.4603 100.144 83.5271 99.387 83.5827V81.3569C100.144 81.3013 100.889 81.2345 101.613 81.1789C110.772 80.3219 117.193 78.3521 117.193 76.0484Z" fill="#8B499C"/>
<path d="M99.3869 94.7118V96.9376C96.9274 97.1045 94.3121 97.1935 91.5966 97.1935C88.8811 97.1935 86.2658 97.1045 83.8063 96.9376V94.7118C86.2658 94.8787 88.8811 94.9677 91.5966 94.9677C94.3121 94.9677 96.9274 94.8787 99.3869 94.7118Z" fill="#FBF8ED"/>
<path d="M117.193 89.4032V91.629C117.193 93.9327 110.772 95.9026 101.613 96.7595C100.889 96.8151 100.144 96.8819 99.387 96.9376V94.7117C100.144 94.6561 100.889 94.5893 101.613 94.5337C110.772 93.6767 117.193 91.7069 117.193 89.4032Z" fill="#8B499C"/>
<path d="M101.613 61.1466V63.3724C100.889 63.4281 100.144 63.4948 99.387 63.5505C96.9275 63.7174 94.3122 63.8064 91.5967 63.8064C88.8812 63.8064 86.2659 63.7174 83.8064 63.5505C83.0496 63.4948 82.304 63.4281 81.5806 63.3724V61.1466C84.6522 61.4248 88.0465 61.5806 91.5967 61.5806C95.1468 61.5806 98.5412 61.4248 101.613 61.1466Z" fill="#8B499C"/>
<path d="M117.194 56.0161V58.2419C117.194 60.5456 110.772 62.5155 101.613 63.3724V61.1466C110.772 60.2897 117.194 58.3198 117.194 56.0161Z" fill="#FBF8ED"/>
<path d="M101.613 74.5014V76.7272C100.889 76.7829 100.144 76.8497 99.387 76.9053C96.9275 77.0722 94.3122 77.1613 91.5967 77.1613C88.8812 77.1613 86.2659 77.0722 83.8064 76.9053C83.0496 76.8497 82.304 76.7829 81.5806 76.7272V74.5014C84.6522 74.7797 88.0465 74.9355 91.5967 74.9355C95.1468 74.9355 98.5412 74.7797 101.613 74.5014Z" fill="#8B499C"/>
<path d="M117.194 69.371V71.5968C117.194 73.9005 110.772 75.8703 101.613 76.7272V74.5014C110.772 73.6445 117.194 71.6747 117.194 69.371Z" fill="#FBF8ED"/>
<path d="M101.613 87.8563V90.0821C100.889 90.1377 100.144 90.2045 99.387 90.2601C96.9275 90.4271 94.3122 90.5161 91.5967 90.5161C88.8812 90.5161 86.2659 90.4271 83.8064 90.2601C83.0496 90.2045 82.304 90.1377 81.5806 90.0821V87.8563C84.6522 88.1345 88.0465 88.2903 91.5967 88.2903C95.1468 88.2903 98.5412 88.1345 101.613 87.8563Z" fill="#8B499C"/>
<path d="M117.194 82.7258V84.9516C117.194 87.2553 110.772 89.2251 101.613 90.0821V87.8563C110.772 86.9993 117.194 85.0295 117.194 82.7258Z" fill="#FBF8ED"/>
<path d="M117.194 96.0806V98.3064C117.194 100.61 110.772 102.58 101.613 103.437V101.211C110.772 100.354 117.194 98.3843 117.194 96.0806Z" fill="#FBF8ED"/>
<path d="M117.193 98.3064V104.984C117.193 107.466 109.715 109.569 99.387 110.292V103.615C100.144 103.559 100.889 103.493 101.613 103.437C103.538 103.259 105.33 103.025 106.977 102.758H112.742C113.922 102.758 115.055 102.289 115.89 101.454C116.724 100.619 117.193 99.4871 117.193 98.3064Z" fill="#8B499C"/>
<path d="M81.5806 103.437C82.304 103.493 83.0497 103.559 83.8064 103.615V110.292C73.4787 109.569 66 107.466 66 104.984V98.3064C66 100.61 72.4214 102.58 81.5806 103.437Z" fill="#8B499C"/>
<path d="M96.0906 101.555C92.6107 100.605 89.3104 99.0905 86.3215 97.0711H86.3104C85.4572 97.0377 84.6225 96.9932 83.8064 96.9376C83.0496 96.8819 82.304 96.8151 81.5806 96.7595V103.437C82.304 103.493 83.0496 103.559 83.8064 103.615C86.2659 103.782 88.8812 103.871 91.5967 103.871C94.3122 103.871 96.9275 103.782 99.387 103.615C100.144 103.559 100.889 103.493 101.613 103.437V101.211C99.8689 101.369 98.0126 101.483 96.0906 101.555Z" fill="#8B499C"/>
<path d="M83.171 94.6606C81.45 93.1821 79.8839 91.5325 78.4968 89.7371C71.0192 88.7577 66 86.9882 66 84.9516V91.629C66 93.9327 72.4214 95.9026 81.5806 96.7595C82.304 96.8151 83.0497 96.8819 83.8064 96.9376V94.7118C83.5905 94.6962 83.3847 94.6784 83.171 94.6606Z" fill="#8B499C"/>
<path d="M81.5806 81.1789C78.7932 80.9355 76.0234 80.52 73.2873 79.9346C72.7657 78.3869 72.3646 76.8011 72.0876 75.1914C68.2926 74.2344 66 72.9768 66 71.5968V78.2742C66 80.5779 72.4214 82.5477 81.5806 83.4047C82.304 83.4603 83.0497 83.5271 83.8064 83.5827V81.3569C83.0497 81.3013 82.304 81.2345 81.5806 81.1789Z" fill="#8B499C"/>
<path d="M81.5806 67.824C78.2012 67.5476 74.8509 66.9892 71.5645 66.1547V61.7031C68.0811 60.7571 66 59.5552 66 58.2419V64.9193C66 67.2231 72.4214 69.1929 81.5806 70.0498C82.304 70.1055 83.0497 70.1722 83.8064 70.2279V68.0021C83.0497 67.9464 82.304 67.8797 81.5806 67.824Z" fill="#8B499C"/>
<path d="M99.3869 103.615V110.292C96.9274 110.459 94.3121 110.548 91.5966 110.548C88.8811 110.548 86.2658 110.459 83.8063 110.292V103.615C86.2658 103.782 88.8811 103.871 91.5966 103.871C94.3121 103.871 96.9274 103.782 99.3869 103.615Z" fill="#FEFDFA"/>
<path d="M81.5806 96.7595V103.437C72.4214 102.58 66 100.61 66 98.3064V91.629C66 93.9327 72.4214 95.9026 81.5806 96.7595Z" fill="#FBF8ED"/>
<path d="M81.5806 87.8563C79.8801 87.6971 78.2742 87.499 76.7863 87.2687C75.7878 85.706 74.9197 84.0637 74.191 82.3585V82.3474C69.1495 81.3347 66 79.8879 66 78.2742V84.9516C66 86.986 71.0147 88.7599 78.4957 89.7371C79.4832 89.8647 80.5108 89.9797 81.5784 90.0821L81.5806 87.8563Z" fill="#FBF8ED"/>
<path d="M71.7615 72.8855C71.6324 71.7184 71.5666 70.5452 71.5645 69.371V68.3805C68.0811 67.4345 66 66.2326 66 64.9193V71.5968C66 73.9005 72.4214 75.8703 81.5806 76.7272V74.5014C78.2693 74.2289 74.9855 73.6884 71.7615 72.8855Z" fill="#FBF8ED"/>
<path d="M71.5645 59.4806V55.029C68.0811 54.0797 66 52.8777 66 51.5645V58.2419C66 60.5456 72.4214 62.5155 81.5806 63.3724V61.1466C78.2013 60.8713 74.851 60.314 71.5645 59.4806Z" fill="#FBF8ED"/>
<path d="M134.443 84.0947C135.185 87.5948 135.185 91.2116 134.443 94.7117L132.93 94.0551C132.151 93.5543 131.06 94.0329 130.504 95.1124L126.431 102.969C126.142 103.416 126.023 103.951 126.094 104.477C126.166 105.004 126.423 105.487 126.82 105.841L128.044 106.931C124.802 110.39 120.658 112.876 116.081 114.11V112.329C116.014 111.801 115.744 111.32 115.329 110.987C114.913 110.655 114.384 110.498 113.855 110.548H104.951C104.422 110.498 103.893 110.655 103.478 110.987C103.062 111.32 102.792 111.801 102.726 112.329V114.11C98.1518 112.88 94.0121 110.398 90.7731 106.943L92.0084 105.841C92.4021 105.485 92.6572 105.002 92.7285 104.476C92.7998 103.951 92.6827 103.417 92.398 102.969L88.3247 95.1124C87.7571 94.0329 86.6776 93.5543 85.8986 94.0551L84.3628 94.7117C83.9904 92.9668 83.8039 91.1874 83.8063 89.4032C83.802 87.6146 83.9923 85.8309 84.3739 84.0835L85.8986 84.7401C86.6776 85.2409 87.7571 84.7735 88.3247 83.6829L92.398 75.8369C92.6834 75.3897 92.8009 74.8556 92.7296 74.3299C92.6582 73.8041 92.4027 73.3207 92.0084 72.9656L90.7842 71.8639C94.0172 68.4064 98.1539 65.9236 102.726 64.6968V66.4774C102.792 67.0053 103.062 67.4865 103.478 67.8189C103.893 68.1513 104.422 68.3088 104.951 68.2581H113.855C114.384 68.3088 114.913 68.1513 115.329 67.8189C115.744 67.4865 116.014 67.0053 116.081 66.4774V64.6968C120.656 65.9275 124.797 68.4139 128.033 71.875L126.82 72.9656C126.423 73.3189 126.166 73.8026 126.094 74.3292C126.023 74.8558 126.142 75.3906 126.431 75.8369L130.504 83.6829C131.06 84.7735 132.151 85.2409 132.93 84.7401L134.443 84.0947ZM126.097 89.4032C126.097 86.1015 125.118 82.874 123.283 80.1288C121.449 77.3835 118.842 75.2439 115.791 73.9804C112.741 72.7169 109.385 72.3863 106.146 73.0304C102.908 73.6745 99.9336 75.2645 97.599 77.5991C95.2644 79.9337 93.6745 82.9082 93.0303 86.1465C92.3862 89.3847 92.7168 92.7412 93.9803 95.7915C95.2438 98.8419 97.3834 101.449 100.129 103.283C102.874 105.118 106.101 106.097 109.403 106.097C113.83 106.095 118.075 104.336 121.206 101.206C124.336 98.0754 126.095 93.8302 126.097 89.4032Z" fill="#8B499C"/>
<path d="M109.403 72.7097C112.705 72.7097 115.932 73.6887 118.678 75.523C121.423 77.3573 123.563 79.9645 124.826 83.0149C126.09 86.0652 126.42 89.4217 125.776 92.66C125.132 95.8982 123.542 98.8727 121.207 101.207C118.873 103.542 115.898 105.132 112.66 105.776C109.422 106.42 106.065 106.09 103.015 104.826C99.9646 103.563 97.3574 101.423 95.5231 98.6776C93.6888 95.9324 92.7097 92.7049 92.7097 89.4032C92.7112 84.9763 94.4704 80.731 97.6008 77.6007C100.731 74.4704 104.976 72.7111 109.403 72.7097ZM118.306 89.4032C113.221 87.9676 109.403 79.3871 109.403 79.3871C109.403 79.3871 105.586 87.9676 100.5 89.4032C105.586 90.8389 109.403 99.4193 109.403 99.4193C109.403 99.4193 113.221 90.8389 118.306 89.4032Z" fill="#FFFCED"/>
<path d="M109.403 79.3871C109.403 79.3871 113.22 87.9676 118.306 89.4032C113.22 90.8389 109.403 99.4193 109.403 99.4193C109.403 99.4193 105.586 90.8389 100.5 89.4032C105.586 87.9676 109.403 79.3871 109.403 79.3871Z" fill="#8B499C"/>
<path d="M116.081 112.329V114.11C111.708 115.297 107.098 115.297 102.726 114.11V112.329C102.792 111.801 103.062 111.32 103.478 110.987C103.893 110.655 104.422 110.498 104.952 110.548H113.855C114.384 110.498 114.913 110.655 115.329 110.987C115.744 111.32 116.014 111.801 116.081 112.329Z" fill="#FFFDF4"/>
<path d="M85.8988 94.0551C86.6779 93.5543 87.7574 94.0329 88.325 95.1124L92.3982 102.969C92.683 103.417 92.8001 103.951 92.7288 104.476C92.6575 105.002 92.4024 105.485 92.0087 105.841L90.7734 106.943C87.5535 103.532 85.3356 99.3002 84.363 94.7118L85.8988 94.0551Z" fill="#FFFDF4"/>
<path d="M88.3248 83.6829C87.7572 84.7735 86.6777 85.241 85.8987 84.7401L84.374 84.0835C85.3374 79.4951 87.5567 75.2645 90.7843 71.8639L92.0085 72.9656C92.4028 73.3207 92.6583 73.8041 92.7297 74.3299C92.801 74.8556 92.6835 75.3897 92.3981 75.8369L88.3248 83.6829Z" fill="#FFFDF4"/>
<path d="M116.081 64.6968V66.4774C116.014 67.0053 115.744 67.4865 115.329 67.8189C114.913 68.1513 114.384 68.3088 113.855 68.2581H104.952C104.422 68.3088 103.893 68.1513 103.478 67.8189C103.062 67.4865 102.792 67.0053 102.726 66.4774V64.6968C107.098 63.5097 111.708 63.5097 116.081 64.6968Z" fill="#FFFDF4"/>
<path d="M132.93 84.7401C132.151 85.2409 131.06 84.7735 130.504 83.6829L126.431 75.8369C126.142 75.3906 126.023 74.8558 126.094 74.3292C126.166 73.8026 126.423 73.3189 126.82 72.9656L128.033 71.875C131.257 75.2785 133.475 79.5079 134.443 84.0947L132.93 84.7401Z" fill="#FFFDF4"/>
<path d="M130.504 95.1124C131.06 94.0329 132.151 93.5543 132.93 94.0551L134.443 94.7118C133.475 99.296 131.26 103.524 128.044 106.931L126.82 105.841C126.423 105.488 126.166 105.004 126.094 104.477C126.023 103.951 126.142 103.416 126.431 102.969L130.504 95.1124Z" fill="#FFFDF4"/>
<path d="M109.403 71.5968C105.881 71.5968 102.439 72.6411 99.5103 74.5977C96.582 76.5543 94.2997 79.3353 92.952 82.589C91.6043 85.8427 91.2516 89.423 91.9387 92.8771C92.6258 96.3312 94.3217 99.504 96.812 101.994C99.3022 104.485 102.475 106.18 105.929 106.868C109.383 107.555 112.964 107.202 116.217 105.854C119.471 104.507 122.252 102.224 124.209 99.2959C126.165 96.3677 127.209 92.925 127.209 89.4032C127.209 84.6807 125.333 80.1515 121.994 76.8122C118.655 73.4728 114.126 71.5968 109.403 71.5968ZM109.403 106.097C106.101 106.097 102.874 105.118 100.129 103.283C97.3833 101.449 95.2437 98.8419 93.9802 95.7916C92.7167 92.7412 92.3861 89.3847 93.0302 86.1465C93.6744 82.9082 95.2643 79.9337 97.5989 77.5991C99.9335 75.2645 102.908 73.6746 106.146 73.0304C109.384 72.3863 112.741 72.7169 115.791 73.9804C118.842 75.2439 121.449 77.3835 123.283 80.1288C125.117 82.874 126.097 86.1015 126.097 89.4032C126.095 93.8302 124.336 98.0754 121.205 101.206C118.075 104.336 113.83 106.095 109.403 106.097Z" fill="#773C86"/>
<path d="M109.403 72.7097C106.102 72.7097 102.874 73.6887 100.129 75.523C97.3836 77.3573 95.2439 79.9645 93.9804 83.0149C92.7169 86.0652 92.3864 89.4217 93.0305 92.66C93.6746 95.8982 95.2645 98.8727 97.5991 101.207C99.9338 103.542 102.908 105.132 106.147 105.776C109.385 106.42 112.741 106.09 115.792 104.826C118.842 103.563 121.449 101.423 123.283 98.6776C125.118 95.9324 126.097 92.7049 126.097 89.4032C126.095 84.9763 124.336 80.731 121.206 77.6007C118.075 74.4704 113.83 72.7111 109.403 72.7097ZM109.403 104.984C106.322 104.984 103.309 104.07 100.747 102.358C98.1849 100.646 96.1879 98.2127 95.0086 95.3657C93.8294 92.5187 93.5208 89.3859 94.122 86.3636C94.7232 83.3412 96.2071 80.565 98.3861 78.386C100.565 76.207 103.341 74.7231 106.364 74.122C109.386 73.5208 112.519 73.8293 115.366 75.0086C118.213 76.1878 120.646 78.1848 122.358 80.7471C124.07 83.3093 124.984 86.3217 124.984 89.4032C124.984 93.5355 123.342 97.4984 120.42 100.42C117.498 103.342 113.536 104.984 109.403 104.984Z" fill="#FBF8ED"/>
<path d="M116.081 112.329V114.11C111.708 115.297 107.098 115.297 102.726 114.11V112.329C102.792 111.801 103.062 111.32 103.478 110.987C103.893 110.655 104.422 110.498 104.952 110.548H113.855C114.384 110.498 114.913 110.655 115.329 110.987C115.744 111.32 116.014 111.801 116.081 112.329Z" fill="#FBF8ED"/>
<path d="M92.0087 105.841L90.7734 106.943C87.5535 103.532 85.3356 99.3002 84.363 94.7118L85.8988 94.0551C86.6779 93.5543 87.7574 94.0329 88.325 95.1124L92.3982 102.969C92.683 103.417 92.8001 103.951 92.7288 104.476C92.6575 105.002 92.4024 105.485 92.0087 105.841Z" fill="#FBF8ED"/>
<path d="M134.443 94.7118C133.475 99.296 131.26 103.524 128.044 106.931L126.82 105.841C126.423 105.488 126.166 105.004 126.094 104.477C126.023 103.951 126.142 103.416 126.431 102.969L130.504 95.1124C131.06 94.0329 132.151 93.5543 132.93 94.0551L134.443 94.7118Z" fill="#FBF8ED"/>
<path d="M84.9193 89.4032C84.9188 87.7659 85.0817 86.1326 85.4056 84.5276L84.3739 84.0824C83.9923 85.8302 83.8019 87.6143 83.8063 89.4032C83.8039 91.1874 83.9904 92.9669 84.3628 94.7118L85.4045 94.2666C85.0815 92.6656 84.919 91.0364 84.9193 89.4032Z" fill="#9D53B0"/>
<path d="M102.726 65.8486V64.6968C98.1539 65.9236 94.0171 68.4064 90.7842 71.8639L91.6033 72.6017C94.6333 69.3881 98.4766 67.0546 102.726 65.8486Z" fill="#9D53B0"/>
<path d="M91.6024 106.208L90.7733 106.947C94.0129 110.401 98.1525 112.882 102.726 114.11V112.958C98.4769 111.753 94.6332 109.421 91.6024 106.208Z" fill="#9D53B0"/>
<path d="M127.21 72.6117L128.03 71.875C124.794 68.4145 120.655 65.928 116.081 64.6968V65.8486C120.333 67.0563 124.179 69.3934 127.21 72.6117Z" fill="#9D53B0"/>
<path d="M134.443 84.0947L133.402 84.5398C134.048 87.7484 134.048 91.0536 133.402 94.2621L134.442 94.7129C135.184 91.2127 135.184 87.5959 134.442 84.0958L134.443 84.0947Z" fill="#9D53B0"/>
<path d="M116.081 112.958V114.11C120.659 112.876 124.802 110.39 128.044 106.931L127.215 106.192C124.183 109.412 120.335 111.75 116.081 112.958Z" fill="#9D53B0"/>
<path d="M109.403 113.887C107.145 113.887 104.898 113.574 102.726 112.958V114.11C107.098 115.297 111.708 115.297 116.081 114.11V112.958C113.908 113.574 111.661 113.887 109.403 113.887Z" fill="#F8F3DF"/>
<path d="M85.4047 94.2666L84.363 94.7117C85.3356 99.3002 87.5535 103.532 90.7734 106.943L91.6025 106.204C88.4593 102.884 86.3119 98.7475 85.4047 94.2666Z" fill="#F8F3DF"/>
<path d="M91.6034 72.5984L90.7843 71.8605C87.5567 75.2612 85.3374 79.4917 84.374 84.0802L85.4057 84.5254C86.3149 80.0481 88.4622 75.9158 91.6034 72.5984Z" fill="#FBF8ED"/>
<path d="M109.403 64.9193C111.661 64.9197 113.908 65.2324 116.081 65.8486V64.6968C111.708 63.5097 107.098 63.5097 102.726 64.6968V65.8486C104.898 65.2324 107.145 64.9197 109.403 64.9193Z" fill="#FBF8ED"/>
<path d="M133.402 84.5387L134.444 84.0935C133.476 79.5068 131.257 75.2774 128.033 71.8739L127.21 72.6117C130.349 75.9297 132.495 80.062 133.402 84.5387Z" fill="#FBF8ED"/>
<path d="M127.215 106.192L128.044 106.931C131.261 103.524 133.475 99.296 134.444 94.7118L133.403 94.261C132.497 98.7388 130.354 102.873 127.215 106.192Z" fill="#F8F3DF"/>
<path d="M130.548 90.5161C131.163 90.5161 131.661 90.0178 131.661 89.4032C131.661 88.7886 131.163 88.2903 130.548 88.2903C129.934 88.2903 129.435 88.7886 129.435 89.4032C129.435 90.0178 129.934 90.5161 130.548 90.5161Z" fill="#FFFCED"/>
<path d="M88.258 90.5161C88.8727 90.5161 89.3709 90.0178 89.3709 89.4032C89.3709 88.7886 88.8727 88.2903 88.258 88.2903C87.6434 88.2903 87.1451 88.7886 87.1451 89.4032C87.1451 90.0178 87.6434 90.5161 88.258 90.5161Z" fill="#FFFCED"/>
<path d="M98.274 108.323C98.8887 108.323 99.3869 107.824 99.3869 107.21C99.3869 106.595 98.8887 106.097 98.274 106.097C97.6594 106.097 97.1611 106.595 97.1611 107.21C97.1611 107.824 97.6594 108.323 98.274 108.323Z" fill="#FFFCED"/>
<path d="M120.532 108.323C121.147 108.323 121.645 107.824 121.645 107.21C121.645 106.595 121.147 106.097 120.532 106.097C119.918 106.097 119.419 106.595 119.419 107.21C119.419 107.824 119.918 108.323 120.532 108.323Z" fill="#FFFCED"/>
<path d="M98.274 72.7097C98.8887 72.7097 99.3869 72.2114 99.3869 71.5968C99.3869 70.9821 98.8887 70.4839 98.274 70.4839C97.6594 70.4839 97.1611 70.9821 97.1611 71.5968C97.1611 72.2114 97.6594 72.7097 98.274 72.7097Z" fill="#FFFCED"/>
<path d="M120.532 72.7097C121.147 72.7097 121.645 72.2114 121.645 71.5968C121.645 70.9821 121.147 70.4839 120.532 70.4839C119.918 70.4839 119.419 70.9821 119.419 71.5968C119.419 72.2114 119.918 72.7097 120.532 72.7097Z" fill="#FFFCED"/>
</svg>
